# xmcd
#
# Track frame offsets:
#        150
#        18123
#        31057
#        50601
#        66065
#        81189
#        95613
#        114838
#        133782
#        147791
#        165812
#        183833
#        202259
#        219271
#        230283
#        253173
#        278129
#        293589
#        308987
#
# Disc length: 4448 seconds
#
# Revision: 0
# Processed by: cddbd v1.5.1PL2 Copyright (c) Steve Scherf et al.
# Submitted via: ExactAudioCopy v0.95b3
#
DISCID=01115e13
DTITLE=Freddie King - Same Old Blues
DYEAR=2005
DGENRE=Blues
TTITLE0=Same Old Blues
TTITLE1=Worried Life Blues
TTITLE2=Five Long Years
TTITLE3=Key To The Highway
TTITLE4=Going Down
TTITLE5=Dust My Broom
TTITLE6=Living On The Highway
TTITLE7=Tore Down
TTITLE8=Lowdown In Lodi
TTITLE9=Reconsider Baby
TTITLE10=Big Legged Woman
TTITLE11=Me And My Guitar
TTITLE12=Boogie Man
TTITLE13=Yonder Wall
TTITLE14=Love Her With A Feeling
TTITLE15=It Hurts Me Too
TTITLE16=How Many More Years
TTITLE17=The Sky Is Crying
TTITLE18=You Don't Have To Go
EXTD=
EXTT0=
EXTT1=
EXTT2=
EXTT3=
EXTT4=
EXTT5=
EXTT6=
EXTT7=
EXTT8=
EXTT9=
EXTT10=
EXTT11=
EXTT12=
EXTT13=
EXTT14=
EXTT15=
EXTT16=
EXTT17=
EXTT18=
PLAYORDER=
